<svg width="22" height="25" viewBox="0 0 22 25" fill="none" xmlns="http://www.w3.org/2000/svg">
<path id="Vector" d="M20.4462 4.55174H4.02683L3.78276 1.02007C3.74284 0.442532 3.37019 0 2.92377 0H1.17152C0.695206 0 0.309082 0.501529 0.309082 1.1202C0.309082 1.73887 0.695206 2.2404 1.17152 2.2404H2.13531C2.66201 9.86212 1.30076 -9.83721 3.12723 16.5944C3.19762 17.6289 3.62797 18.7515 4.36934 19.5143C3.03269 21.7314 4.25398 25 6.42825 25C8.23287 25 9.5057 22.6622 8.88684 20.448H13.6071C12.989 22.6594 14.2591 25 16.0657 25C17.5074 25 18.6804 23.4765 18.6804 21.6038C18.6804 19.7312 17.5074 18.2076 16.0657 18.2076H6.43408C5.77896 18.2076 5.20807 17.6943 4.96166 16.9463L18.7445 15.8942C19.1208 15.8655 19.4391 15.5226 19.5306 15.0476L21.283 5.94361C21.4188 5.23767 21.0074 4.55174 20.4462 4.55174ZM6.42825 22.7596C5.93765 22.7596 5.53847 22.2411 5.53847 21.6038C5.53847 20.9665 5.93765 20.448 6.42825 20.448C6.9189 20.448 7.31808 20.9665 7.31808 21.6038C7.31808 22.2411 6.9189 22.7596 6.42825 22.7596ZM16.0656 22.7596C15.575 22.7596 15.1758 22.2411 15.1758 21.6038C15.1758 20.9665 15.575 20.448 16.0656 20.448C16.5563 20.448 16.9554 20.9665 16.9554 21.6038C16.9554 22.2411 16.5563 22.7596 16.0656 22.7596ZM18.0109 13.7059L4.72951 14.7197L4.18165 6.79208H19.3417L18.0109 13.7059Z" fill="white"/>
</svg>
