<svg width="20" height="26" viewBox="0 0 20 26" fill="none" xmlns="http://www.w3.org/2000/svg">
<path id="Vector" d="M19.1622 13.7632C18.1155 13.7632 1.88088 13.7632 0.837773 13.7632C0.415734 13.7632 0.0742188 14.1047 0.0742188 14.5265C0.0742188 14.9485 0.415734 15.2898 0.837773 15.2898H1.60133V25.2131C1.60133 25.6351 1.94284 25.9764 2.36488 25.9764H17.6353C18.0573 25.9764 18.3988 25.635 18.3988 25.2131V15.2899H19.1624C19.5844 15.2899 19.926 14.9485 19.926 14.5266C19.9258 14.1047 19.5843 13.7632 19.1622 13.7632ZM15.3446 22.1598C15.3446 22.5818 15.0031 22.9231 14.5811 22.9231H5.41884C4.9968 22.9231 4.65529 22.5817 4.65529 22.1598V17.5799C4.65529 17.1579 4.9968 16.8166 5.41884 16.8166H14.5811C15.0031 16.8166 15.3446 17.158 15.3446 17.5799V22.1598ZM6.1824 21.3965H13.8176V18.3433H6.1824V21.3965ZM5.41884 7.65659H8.328C8.10628 8.62098 7.65889 9.24291 7.21279 9.83253C6.70653 10.5019 6.18231 11.1945 6.18231 12.2365H13.8175C13.8175 11.2101 13.2941 10.5064 12.7878 9.82651C12.3433 9.22916 11.8972 8.6013 11.674 7.6565H14.5811C14.8316 7.6565 15.0658 7.53353 15.2089 7.32779C15.3513 7.12206 15.3842 6.85969 15.2962 6.62482L13.0056 0.518193C12.8937 0.220764 12.6089 0.0231934 12.2905 0.0231934H7.70934C7.39094 0.0231934 7.10614 0.220764 6.99425 0.518193L4.70367 6.62482C4.61567 6.85961 4.6485 7.12206 4.7909 7.32779C4.93424 7.53361 5.16834 7.65659 5.41884 7.65659Z" fill="url(#paint0_linear_1_335)"/>
<defs>
<linearGradient id="paint0_linear_1_335" x1="10" y1="25.9765" x2="10" y2="0.0233666" gradientUnits="userSpaceOnUse">
<stop stop-color="#FFA68D"/>
<stop offset="1" stop-color="#FD3A84"/>
</linearGradient>
</defs>
</svg>
